P2
10 10
255
   0   0   0   0   0   0   0   0   0   0
   0   0   0   0   0   0   0   0   0   0
   0   0   0   0   0   0   0   0   0   0
   0   0   0   0   0   0   0   0   0   0
   0   0   0 254 252 250 244   0   0   0
   0   0 254 127  92 119   0   0   0   0
   0   0 248 107 236 120 254   0   0   0
   0   0 123 117 247 250   0   0   0   0
   0   0   0   0   0   0   0   0   0   0
   0   0   0   0   0   0   0   0   0   0
